<svg id="图层_1" data-name="图层 1" xmlns="http://www.w3.org/2000/svg" viewBox="0 0 512 512"><title>10</title><path d="M256,0C114.62,0,0,114.62,0,256S114.62,512,256,512,512,397.38,512,256,397.38,0,256,0ZM381.22,206.38c-4.59,28.26-26.57,78.55-38.6,99.37S305.25,364.07,279.28,390C258,411.24,227.79,429.7,174.49,431.41c0,.16-46.06-24.78-46.06-24.78l54-92.12,49.44,26.1c21.11-13.94,44.4-43,55.71-62.55,12.47-23,23.39-51.82,25-72.95l-48.8-31.44,53.74-93.08s51.41,29.85,51.44,29.69C386.7,157.29,384.74,184.73,381.22,206.38Z"/></svg>