<svg id="图层_1" data-name="图层 1" xmlns="http://www.w3.org/2000/svg" viewBox="0 0 512 512"><title>14</title><path d="M256,0C114.62,0,0,114.62,0,256S114.62,512,256,512,512,397.38,512,256,397.38,0,256,0Zm-1,208.88a6,6,0,0,1,8.28-1.83,63.29,63.29,0,0,1,29.32,53.44,6,6,0,0,1-6,6h0a6,6,0,0,1-6-6,51.27,51.27,0,0,0-23.77-43.32A6,6,0,0,1,255,208.88Zm75.52,180.79c-6.42,4.4-11.59,7.39-20,9.5-27.31,4.05-55.55-15.39-75.4-35.07-19.35-19.17-40.8-46.77-52.58-64.79-8.5-13-37.51-72.13-41-108-2.48-25.52-3-55.74,14.95-68,5.62-3.83,14.81-8.34,16.11-9.2a23.69,23.69,0,0,1,2.22-1.33c4.28-1.63,7.24,1.21,8.9,4.1,1.2,2.07,31.43,55.63,35.83,62s1,12.52-1.86,13.49l-18,10.32c-6.2,3.58-9.09,8.14-8.18,14.51,2.21,17.26,13.73,35.81,24.26,55.24,9.55,16.55,25.7,40.59,33.74,49.74,5.74,6.53,17.08.83,17.08.83s12.3-7.13,18.26-10.6c8-4.66,11.77-.11,14.16,4l35.45,60.21C336.49,380.34,333.83,387.07,330.51,389.67Zm4.2-127a6,6,0,0,1-5.84,4.68,6.1,6.1,0,0,1-1.33-.15A6,6,0,0,1,323,260a64.14,64.14,0,0,0-39.93-74.19,6,6,0,0,1,4.25-11.22c7.87,3,27.48,12.28,39.69,34.27C339.73,231.75,336.63,254.09,334.71,262.64Zm42.84-5.26a6,6,0,0,1-6,5.65h-.36a6,6,0,0,1-5.64-6.35,112.15,112.15,0,0,0-62.76-107.45,6,6,0,1,1,5.27-10.78,124.15,124.15,0,0,1,69.47,118.94Z"/></svg>