<svg id="图层_1" data-name="图层 1" xmlns="http://www.w3.org/2000/svg" viewBox="0 0 512 512"><title>19</title><g id="_19" data-name="19"><g id="直角"><path d="M379.85,166.09c4,40.27-3.22,61.21-10.47,77.32-9.47,21-37.05,55.56-50.74,69.25S277.41,350.23,251.8,365c-20.94,12.08-48.32,20.13-90.14,10.36-.06.11-30.66-28.88-30.66-28.88l61.21-60.4,33,30.6c19.33-6.44,43.49-24.16,56.38-37,14.49-15.31,29-35.44,34.63-51.55l-31.41-34.62L346,132.27S379.79,166.21,379.85,166.09Z"/></g><path d="M422,16a74.26,74.26,0,0,1,74,74V422a74.26,74.26,0,0,1-74,74H90a74.26,74.26,0,0,1-74-74V90A74.26,74.26,0,0,1,90,16H422m0-16H90C40.5,0,0,40.5,0,90V422c0,49.5,40.5,90,90,90H422c49.5,0,90-40.5,90-90V90c0-49.5-40.5-90-90-90Z"/></g></svg>