<svg id="图层_1" data-name="图层 1" xmlns="http://www.w3.org/2000/svg" viewBox="0 0 512 512"><defs><style>.cls-1{fill:none;stroke:#000;stroke-linecap:round;stroke-miterlimit:10;stroke-width:12px;}</style></defs><title>2</title><g id="_2" data-name="2"><path d="M256,16a240.07,240.07,0,0,1,93.41,461.15A240.07,240.07,0,0,1,162.59,34.85,238.43,238.43,0,0,1,256,16m0-16C114.62,0,0,114.62,0,256S114.62,512,256,512,512,397.38,512,256,397.38,0,256,0Z"/><path d="M141.93,103.86l-28,28s-24,24-5,78c20.09,57.11,62,99,79,116s46,42,78,60c26.16,14.72,80,40,112,13,15-13,26-24,30-29,3-4,3.54-11.46,0-15l-59-58c-4-4-10-8-18-1s-23,25-27,28c-5,4-14.43,4.71-23-1-12-8-32-23-48-39-18-19-37-37-46-55-3-7-1-17,5-23l26-26c3-2,5-10-2-16s-58-58-60-60C152.93,100.86,146.93,99.86,141.93,103.86Z"/><path class="cls-1" d="M283.5,154.45A84.4,84.4,0,0,1,335,179.36c21.24,22,23,48.15,23.29,54.5"/><path class="cls-1" d="M295.5,106.65A139.93,139.93,0,0,1,405.82,215.86"/><path class="cls-1" d="M264.5,198.66a67.83,67.83,0,0,1,45.19,47.2"/></g></svg>