<svg id="图层_1" data-name="图层 1" xmlns="http://www.w3.org/2000/svg" viewBox="0 0 512 512"><defs><style>.cls-1{fill:none;stroke:#000;stroke-linecap:square;stroke-miterlimit:10;stroke-width:12px;}</style></defs><title>23</title><g id="_23" data-name="23"><path class="cls-1" d="M264.33,209.51a54.67,54.67,0,0,1,25.35,46.2"/><path class="cls-1" d="M288.36,179a67,67,0,0,1,41.69,77.47"/><path class="cls-1" d="M307.68,144.3a112.83,112.83,0,0,1,63.14,108.1"/><g id="_17" data-name="17"><path d="M144.43,132.62c-8,29.69,0,72.76,2.84,84.49,3.31,15.72,12.23,43.8,28.67,72.29,16.15,28,33.89,51.64,52.54,68.67,7.54,7.18,35,30,77.45,41.27,0,.13,30.11-15.88,30.11-15.88L291.19,307l-32.92,17C240.73,312.34,221.39,288.25,212,272c-10.36-19.11-19.43-43-20.74-60.59L223.07,189l-44-76.29S144.46,132.75,144.43,132.62Z"/></g><path d="M422,16a74.26,74.26,0,0,1,74,74V422a74.26,74.26,0,0,1-74,74H90a74.26,74.26,0,0,1-74-74V90A74.26,74.26,0,0,1,90,16H422m0-16H90C40.5,0,0,40.5,0,90V422c0,49.5,40.5,90,90,90H422c49.5,0,90-40.5,90-90V90c0-49.5-40.5-90-90-90Z"/></g></svg>