<svg id="图层_1" data-name="图层 1" xmlns="http://www.w3.org/2000/svg" viewBox="0 0 512 512"><title>27</title><g id="_27" data-name="27"><path d="M279.73,180.11l17.52,10,53.56-92.78c-6.69-4.31-16.25-9-17.69-10a28,28,0,0,0-2.62-1.58c-5.08-1.93-8.58,1.44-10.55,4.85-1.42,2.45-37.22,65.88-42.43,73.49S276.32,179,279.73,180.11Z"/><path d="M215.76,331.27l-15.52-9c-9.51-5.52-13.93-.13-16.76,4.77l-42,71.29c-2.5,4.33.65,12.29,4.58,15.38,5.69,3.9,10.55,6.85,16.81,9.14Z"/><path d="M356.39,101.68l-53.13,92c5.84,4,8.48,9.06,7.51,15.81-2.62,20.45-16.25,42.41-28.72,65.42-11.31,19.6-30.44,48.06-40,58.9-6.8,7.73-20.23,1-20.23,1l0,0-52.06,90.16h0c32.34,4.79,65.78-18.22,89.29-41.53C282,360.72,307.4,328,321.36,306.69c10.06-15.38,44.4-85.4,48.54-127.92C372.63,150.69,373.33,117.83,356.39,101.68Z"/><path d="M422,16a74.26,74.26,0,0,1,74,74V422a74.26,74.26,0,0,1-74,74H90a74.26,74.26,0,0,1-74-74V90A74.26,74.26,0,0,1,90,16H422m0-16H90C40.5,0,0,40.5,0,90V422c0,49.5,40.5,90,90,90H422c49.5,0,90-40.5,90-90V90c0-49.5-40.5-90-90-90Z"/></g></svg>