<svg id="图层_1" data-name="图层 1" xmlns="http://www.w3.org/2000/svg" viewBox="0 0 512 512"><title>29</title><path d="M422,0H90C40.5,0,0,40.5,0,90V422c0,49.5,40.5,90,90,90H422c49.5,0,90-40.5,90-90V90C512,40.5,471.5,0,422,0ZM272.24,173.39a6,6,0,0,1,6.57-5.37c8,.81,28.52,4.56,45.3,21.92,17.47,18.06,20.16,39.54,20.5,47.94a6,6,0,0,1-5.75,6.24h-.25a6,6,0,0,1-6-5.76,61.09,61.09,0,0,0-55-58.4A6,6,0,0,1,272.24,173.39Zm-15.1,34.5a6,6,0,0,1,7.53-3.92,60.76,60.76,0,0,1,40.49,42.29,6,6,0,0,1-11.59,3.11,48.8,48.8,0,0,0-32.51-34A6,6,0,0,1,257.14,207.89ZM378.7,348c-3.23,4-12.11,12.93-24.23,23.43-25.84,21.8-69.32,1.38-90.45-10.5-25.84-14.54-49.26-34.73-63-48.46s-47.58-47.56-63.8-93.68c-15.35-43.61,4-63,4-63l22.62-22.61c4-3.23,8.88-2.42,11.3,0,1.62,1.62,42.81,43.61,48.46,48.46s4,11.3,1.62,12.92l-21,21c-4.85,4.84-6.46,12.92-4,18.57,7.27,14.54,22.61,29.08,37.15,44.42A277.24,277.24,0,0,0,276.13,310c6.92,4.61,14.54,4,18.58.8,3.23-2.42,15.34-17,21.81-22.61s11.3-2.42,14.53.81l47.65,46.84C381.56,338.7,381.12,344.72,378.7,348Zm-.49-118.49a6.38,6.38,0,0,1-1.22.12,6,6,0,0,1-5.87-4.79,107,107,0,0,0-84.37-83.52,6,6,0,0,1,2.3-11.78,119,119,0,0,1,93.82,92.88A6,6,0,0,1,378.21,229.46Z"/></svg>