<svg id="图层_1" data-name="图层 1" xmlns="http://www.w3.org/2000/svg" viewBox="0 0 512 512"><title>3</title><g id="_3" data-name="3"><path d="M195,202.77l22.91-22.91c3-2,5-10-2-16s-58-58-60-60c-3-3-9-4-14,0L119,126.77Z"/><path d="M407.93,354.86l-59-58c-4-4-10-8-18-1-5.59,4.9-14.61,15.17-20.89,21.93l74.89,74.89c11.39-10.24,19.65-18.64,23-22.82C410.93,365.86,411.47,358.4,407.93,354.86Z"/><path d="M305.37,322.61a18.6,18.6,0,0,1-1.44,1.25c-5,4-14.43,4.71-23-1-12-8-32-23-48-39-18-19-37-37-46-55-2.72-6.35-1.31-15.17,3.45-21.23l-76.11-76.11-.34.34s-24,24-5,78c20.09,57.11,62,99,79,116s46,42,78,60c26.16,14.72,80,40,112,13l2-1.72Z"/><path d="M256,16a240.07,240.07,0,0,1,93.41,461.15A240.07,240.07,0,0,1,162.59,34.85,238.43,238.43,0,0,1,256,16m0-16C114.62,0,0,114.62,0,256S114.62,512,256,512,512,397.38,512,256,397.38,0,256,0Z"/></g></svg>