<svg id="图层_1" data-name="图层 1" xmlns="http://www.w3.org/2000/svg" viewBox="0 0 512 512"><title>33</title><path d="M422,0H90C40.5,0,0,40.5,0,90V422c0,49.5,40.5,90,90,90H422c49.5,0,90-40.5,90-90V90C512,40.5,471.5,0,422,0ZM304,173.13c7-6,58-58,60-60,2.78-2.79,7-5.14,11.44-2a29.52,29.52,0,0,1,2.13,2.2c1.18,1.33,9.68,8.77,15,14.78L316.9,203.87,302,189.13C299,187.13,297,179.13,304,173.13Zm-191.56,207c-3-4-4-12.51-.45-16l59-58c4-4,9.67-8.07,17.43-.27l13.2,13.25L127,393.78C121.2,389.83,117.13,385.6,112.48,380.17Zm277-169c-15,40-66.3,98.74-80,111-19,17-52,42-80,58-28.51,16.29-66.38,29.76-96.27,17.29L206.64,324c2.33,1.88,11.79,8.8,19.25,3.83,12-8,37.85-30.54,53.85-46.54,18-19,36.85-36.69,44.67-55.76,2.59-6,1.52-11.41-2.68-16.63l75-75C408.36,153.9,399.27,185.05,389.48,211.17Z"/></svg>