<svg id="图层_1" data-name="图层 1" xmlns="http://www.w3.org/2000/svg" viewBox="0 0 312.77 312.74"><title>37</title><g id="_37" data-name="37"><path d="M117.39,152.1l41.86,42,20.42,20.5a30.24,30.24,0,0,0-1.48,4.89c-2.85,13.4,4,24.59,10.67,34a268.24,268.24,0,0,0,32.41,37.65c6.76,6.6,17.42,16.77,31.82,28.74,20.24,16.81,31.28,22.77,42.19,22.77a29.55,29.55,0,0,0,5.25-.48,32.21,32.21,0,0,0,5-1.31L330,365.54l34.48,34.6a74.57,74.57,0,0,1-9.71,3.12,73.45,73.45,0,0,1-17.5,2.11c-28.94,0-57.64-17.29-80.7-31.19-10.11-6.09-36.72-23.42-65.5-52.82-24.66-25.18-44.74-52.82-59.68-82.15-16.53-32.44-22.88-58.54-18.38-75.48a62.92,62.92,0,0,1,4.36-11.63M115.45,136a76.91,76.91,0,0,0-12.09,25.18c-2,7.66-7,31.33,19.14,82.59,9.63,18.9,28,50.49,61.44,84.61,31.95,32.63,60.71,50.31,67.48,54.39,26.26,15.82,54.91,32.62,85.87,32.62a82.67,82.67,0,0,0,19.89-2.4,87.13,87.13,0,0,0,24.17-10.08l-73.76-74,0,0a23.83,23.83,0,0,1-8.8,3.57,20,20,0,0,1-3.48.32c-7.42,0-16.58-4.5-35.8-20.47-13.65-11.34-23.87-21-31.22-28.2A258.15,258.15,0,0,1,197,247.78c-6.79-9.63-10.9-17.54-9.06-26.18a22.15,22.15,0,0,1,4.08-8.73l-.32-.32L115.45,136Z" transform="translate(-101.61 -102.63)"/><path d="M153.42,112.63a2,2,0,0,1,1.41.58l61.4,61.4a2,2,0,0,1,.59,1.42,1.93,1.93,0,0,1-.59,1.41l-17.64,17.64-64.22-64.23L152,113.21a2,2,0,0,1,1.42-.58m0-10a12,12,0,0,0-8.49,3.51l-24.71,24.71,78.37,78.37,24.71-24.71a12,12,0,0,0,0-17l-61.4-61.4a12,12,0,0,0-8.48-3.51Z" transform="translate(-101.61 -102.63)"/><path d="M344.4,305.06a2,2,0,0,1,1.42.59l58,58a2,2,0,0,1,.59,1.41,2,2,0,0,1-.59,1.42l-16.19,16.19L326.8,321.84,343,305.65a1.94,1.94,0,0,1,1.41-.59m0-10a11.92,11.92,0,0,0-8.48,3.52l-23.26,23.26,74.95,75,23.26-23.26a12,12,0,0,0,0-17l-58-58a12,12,0,0,0-8.49-3.52Z" transform="translate(-101.61 -102.63)"/></g></svg>