<svg id="图层_1" data-name="图层 1" xmlns="http://www.w3.org/2000/svg" viewBox="0 0 512 512"><title>4</title><g id="_4" data-name="4"><path d="M256,16a240.07,240.07,0,0,1,93.41,461.15A240.07,240.07,0,0,1,162.59,34.85,238.43,238.43,0,0,1,256,16m0-16C114.62,0,0,114.62,0,256S114.62,512,256,512,512,397.38,512,256,397.38,0,256,0Z"/><g id="直角"><path d="M105.5,143.07c0,37,22.62,84.62,29.62,97.37,8.75,17.25,27.88,47.13,55.88,75.13,27.5,27.5,55.5,49.5,82.5,63.5,11,6,50,24,102.93,23.86.07.14,30.07-27.86,30.07-27.86l-76-75-33,30c-24-8-54-30-70-46-18-19-36-44-43-64l30-36-75-75S105.57,143.21,105.5,143.07Z"/></g></g></svg>