<svg id="图层_1" data-name="图层 1" xmlns="http://www.w3.org/2000/svg" viewBox="0 0 286.32 340.35"><defs><style>.cls-1{fill:none;stroke:#000;stroke-linecap:round;stroke-miterlimit:10;stroke-width:12px;}</style></defs><title>47</title><g id="_47" data-name="47"><g id="_25" data-name="25"><path d="M353.84,99.46l2.08,1.11c3.82,2,10.21,5.43,14.29,8.21,16.19,11,14.9,44.91,12.51,69.42-3.77,38.8-36.49,107-46.64,122.51-13.11,20.05-37.68,52-60.67,74.78-14.58,14.45-43.33,38.69-72.08,38.69a48.94,48.94,0,0,1-6.44-.43c-7.39-1.92-12-4.46-18.57-8.89a6.21,6.21,0,0,1-.76-1.48l41-69.67,0,0,0,0c.1-.16.18-.31.27-.44l.08.05,21.63,12.55.31.18.32.16a39.7,39.7,0,0,0,16.52,4c7.37,0,13.63-2.69,18.11-7.79,10.7-12.17,30.37-41.82,41.34-60.82l.08-.14.08-.14c1.8-3.32,3.66-6.69,5.45-9.94,11.35-20.51,22.06-39.89,24.61-59.59,1.2-8.55-.54-20.51-15.62-29.21L312.3,171.34c3.42-5.06,16.23-27.22,40.27-69.63.49-.86.92-1.61,1.27-2.25m-1.47-13.64c-3.54,0-6.08,2.7-7.66,5.42-1.41,2.45-37.21,65.88-42.42,73.49s-1.21,14.81,2.21,16l21.35,12.21c7.35,4.25,10.77,9.65,9.69,17.19-2.62,20.45-16.25,42.41-28.72,65.42-11.32,19.6-30.45,48.06-40,58.9a11.6,11.6,0,0,1-9.09,3.71,28.34,28.34,0,0,1-11.13-2.73L225,322.85a14.69,14.69,0,0,0-7.29-2.33c-4.74,0-7.5,3.67-9.48,7.1l-42,71.29c-2.5,4.33.65,12.3,4.58,15.38,7.61,5.21,13.74,8.75,23.72,11.25a60.18,60.18,0,0,0,8.77.64c29.53,0,59.14-21,80.53-42.17,22.9-22.7,48.31-55.39,62.26-76.73,10.06-15.38,44.41-85.4,48.55-127.92,2.94-30.22,3.54-66-17.7-80.49C370.3,94.32,359.43,89,357.89,88a30.51,30.51,0,0,0-2.63-1.58,8.14,8.14,0,0,0-2.89-.57Z" transform="translate(-109.84 -85.82)"/></g><path class="cls-1" d="M248.13,202.3a67.8,67.8,0,0,0-31.44,57.28" transform="translate(-109.84 -85.82)"/><path class="cls-1" d="M218.33,164.51A84.37,84.37,0,0,0,175,201.9c-14.84,26.72-9.79,52.47-8.4,58.67" transform="translate(-109.84 -85.82)"/><path class="cls-1" d="M194.37,121.44a139.93,139.93,0,0,0-78.29,134" transform="translate(-109.84 -85.82)"/></g></svg>