<svg id="图层_1" data-name="图层 1" xmlns="http://www.w3.org/2000/svg" viewBox="0 0 512 512"><defs><style>.cls-1{fill:none;stroke:#000;stroke-linecap:square;stroke-miterlimit:10;stroke-width:12px;}</style></defs><title>5</title><g id="_5" data-name="5"><g id="_18" data-name="18"><path class="cls-1" d="M269.28,195a67.83,67.83,0,0,1,45.2,47.19"/><path class="cls-1" d="M288.28,150.78a84.41,84.41,0,0,1,51.5,24.91c21.25,22,23,48.15,23.3,54.5"/><path class="cls-1" d="M300.28,103A139.93,139.93,0,0,1,410.6,212.19"/><g id="_17" data-name="17"><path d="M101,141.39c0,38.1,23.3,87.15,30.51,100.28,9,17.77,28.71,48.54,57.55,77.38,28.32,28.32,57.16,51,85,65.39,11.33,6.18,51.5,24.72,106,24.58.07.14,31-28.7,31-28.7l-78.27-77.24-34,30.9c-24.72-8.24-55.61-30.9-72.09-47.38-18.54-19.56-37.08-45.31-44.29-65.91l30.9-37.08L136,106.37S101.07,141.53,101,141.39Z"/></g></g><path d="M256,16a240.07,240.07,0,0,1,93.41,461.15A240.07,240.07,0,0,1,162.59,34.85,238.43,238.43,0,0,1,256,16m0-16C114.62,0,0,114.62,0,256S114.62,512,256,512,512,397.38,512,256,397.38,0,256,0Z"/></g></svg>