<svg id="图层_1" data-name="图层 1" xmlns="http://www.w3.org/2000/svg" viewBox="0 0 312.12 310.03"><defs><style>.cls-1{fill:none;stroke:#000;stroke-linecap:square;stroke-miterlimit:10;stroke-width:12px;}</style></defs><title>50</title><g id="_50" data-name="50"><g id="直角"><path d="M102.22,148.36c-5,50,4,76,13,96,11.75,26.11,46,69,63,86s51.19,46.65,83,65c26,15,60,25,111.93,12.86.07.14,38.07-35.86,38.07-35.86l-76-75-41,38c-24-8-54-30-70-46-18-19-36-44-43-64l39-43-76-76S102.28,148.5,102.22,148.36Z" transform="translate(-100.78 -103.61)"/></g><path class="cls-1" d="M295.5,110.65A139.93,139.93,0,0,1,405.82,219.86" transform="translate(-100.78 -103.61)"/><path class="cls-1" d="M283.5,158.45A84.4,84.4,0,0,1,335,183.36c21.24,22,23,48.15,23.29,54.5" transform="translate(-100.78 -103.61)"/><path class="cls-1" d="M264.5,202.66a67.83,67.83,0,0,1,45.19,47.2" transform="translate(-100.78 -103.61)"/></g></svg>