<svg id="图层_1" data-name="图层 1" xmlns="http://www.w3.org/2000/svg" viewBox="0 0 252.74 351.66"><title>52</title><g id="_52" data-name="52"><path d="M215.87,190.8l28.07-16.2c3.41-1.15,7.41-8.36,2.2-16s-41-71-42.42-73.49c-2.12-3.67-7.66-6.19-13.52-3.62l-28.07,16.2Z" transform="translate(-130.44 -80.47)"/><path d="M382.17,392.81l-42-71.29c-2.83-4.9-7.59-10.32-17.13-5.62-6.67,3.28-18,10.87-25.86,15.77l53,91.72c13.66-6.94,23.81-12.91,28.13-16.09C382.22,404.22,384.67,397.14,382.17,392.81Z" transform="translate(-130.44 -80.47)"/><path d="M291.44,335.12a15,15,0,0,1-1.71.83c-5.86,2.57-15.16.82-22-6.92-9.52-10.83-25-30.49-36.27-50.09-12.47-23-26.17-45.32-30.2-65-1-6.84,2.66-15,8.83-19.62l-53.82-93.21-.42.24s-29.39,17-25,74.05c4.63,60.36,34.27,111.67,46.29,132.49S210.73,360.34,237,386c21.46,21,66.92,59.34,104.82,41.54l2.35-1.15Z" transform="translate(-130.44 -80.47)"/></g></svg>