<svg id="图层_1" data-name="图层 1" xmlns="http://www.w3.org/2000/svg" viewBox="0 0 298.12 351.66"><defs><style>.cls-1{fill:none;stroke:#000;stroke-linecap:round;stroke-miterlimit:10;stroke-width:12px;}</style></defs><title>58</title><g id="_58" data-name="58"><path class="cls-1" d="M242.23,200.63a67.89,67.89,0,0,0-31.44,57.29" transform="translate(-103.94 -80.17)"/><path class="cls-1" d="M212.43,162.84a84.37,84.37,0,0,0-43.29,37.39c-14.84,26.72-9.79,52.47-8.4,58.67" transform="translate(-103.94 -80.17)"/><path class="cls-1" d="M188.47,119.77a139.93,139.93,0,0,0-78.29,134.05" transform="translate(-103.94 -80.17)"/><path d="M342.3,81.22,376.6,101s29.39,17,25,74.05c-4.62,60.36-34.26,111.67-46.28,132.49S321.77,360,295.52,385.7c-21.47,21-66.93,59.35-104.82,41.55-17.86-8.68-31.33-16.45-36.49-20.25-3.93-3.09-6.38-10.16-3.88-14.49l42-71.29c2.83-4.9,7.59-10.32,17.13-5.63s28.68,18.2,33.32,20.06c5.87,2.57,15.16.82,22-6.92,9.52-10.83,25-30.5,36.27-50.09,12.47-23,26.16-45.32,30.2-65,1.08-7.54-3.44-16.68-10.78-20.93L288.56,174.3c-3.41-1.16-7.42-8.37-2.21-16s41-71,42.43-73.49C330.9,81.17,336.44,78.65,342.3,81.22Z" transform="translate(-103.94 -80.17)"/></g></svg>