<svg id="图层_1" data-name="图层 1" xmlns="http://www.w3.org/2000/svg" viewBox="0 0 512 512"><title>6</title><g id="_6" data-name="6"><path d="M256,16a240.07,240.07,0,0,1,93.41,461.15A240.07,240.07,0,0,1,162.59,34.85,238.43,238.43,0,0,1,256,16m0-16C114.62,0,0,114.62,0,256S114.62,512,256,512,512,397.38,512,256,397.38,0,256,0Z"/><path d="M305.31,323l-7.81,7.1c-24-8-54-30-70-46-18-19-36-44-43-64l8.14-9.77L115.5,133.16c-5.6,5.61-10,10-10,9.91,0,37,22.63,84.62,29.63,97.37,8.75,17.25,27.87,47.13,55.87,75.13,27.5,27.5,55.5,49.5,82.5,63.5,11,6,50,24,102.93,23.86,0,0,1.86-1.65,4.63-4.2Z"/><path d="M386.16,393.93l-.93.94c8.87-8.23,21.27-19.8,21.27-19.8l-76-75-20,18.19Z"/><path d="M197.14,204.91l17.36-20.84-75-75s-9.93,10-19.06,19.14Z"/></g></svg>